PathFileType	4	(X/Y/Z)	S01_0010_Gait_markers.trc
DataRate	CameraRate	NumFrames	NumMarkers	Units	OrigDataRate	OrigDataStartFrame	OrigNumFrames
250.000000	250.000000	4	54	mm	250.000000	44	354
Frame#	Time	HEAD_ANT			R_HEAD			L_HEAD			C7			R_BACK			L_BACK			STERNUM			R_ACROMION			R_HUM_PROX			R_HUM_ANT			R_HUM_POST			R_ELBOW_LAT			R_ELBOW_MED			R_FOREARM			R_WIRST_LAT			R_WRITS_MED			R_HAND			L_ACROMION			L_HUM_PROX			L_HUM_ANT			L_HUM_POST			L_ELBOW_LAT			L_ELBOW_MED			L_FOREARM			L_WRIST_LAT			L_WIRST_MED			L_HAND			R_ILIAC			SACRUM			L_ILIAC			R_GTROCH			R_THIGH__1			R_THIGH_2			R_THIGH_3			R_THIGH_4			R_SHANK_1			R_SHANK_2			R_SHANK_3			R_SHANK_4			R_HEEL			R_FOOT_LAT			R_FOOT_MED			L_GTROCH			L_THIGH_1			L_THIGH_2			L_THIGH_3			L_THIGH_4			L_SHANK_1			L_SHANK_2			L_SHANK_3			L_SHANK_4			L_HEEL			L_FOOT_LAT			L_FOOT_MED			
		X1	Y1	Z1	X2	Y2	Z2	X3	Y3	Z3	X4	Y4	Z4	X5	Y5	Z5	X6	Y6	Z6	X7	Y7	Z7	X8	Y8	Z8	X9	Y9	Z9	X10	Y10	Z10	X11	Y11	Z11	X12	Y12	Z12	X13	Y13	Z13	X14	Y14	Z14	X15	Y15	Z15	X16	Y16	Z16	X17	Y17	Z17	X18	Y18	Z18	X19	Y19	Z19	X20	Y20	Z20	X21	Y21	Z21	X22	Y22	Z22	X23	Y23	Z23	X24	Y24	Z24	X25	Y25	Z25	X26	Y26	Z26	X27	Y27	Z27	X28	Y28	Z28	X29	Y29	Z29	X30	Y30	Z30	X31	Y31	Z31	X32	Y32	Z32	X33	Y33	Z33	X34	Y34	Z34	X35	Y35	Z35	X36	Y36	Z36	X37	Y37	Z37	X38	Y38	Z38	X39	Y39	Z39	X40	Y40	Z40	X41	Y41	Z41	X42	Y42	Z42	X43	Y43	Z43	X44	Y44	Z44	X45	Y45	Z45	X46	Y46	Z46	X47	Y47	Z47	X48	Y48	Z48	X49	Y49	Z49	X50	Y50	Z50	X51	Y51	Z51	X52	Y52	Z52	X53	Y53	Z53	X54	Y54	Z54	

45	0.176	329.4822387695312	1714.068725585938	-268.276947021484	271.8656616210938	1657.505493164062	-194.5844421386715	270.585693359375	1671.6904296875	-342.0461730957027	132.9821319580078	1497.217041015625	-289.0050964355465	53.39954376220703	1299.277221679688	-233.3373413085935	59.89080810546875	1306.702880859375	-370.2923278808591	306.6546630859375	1331.025146484375	-279.8471679687497	198.7078857421875	1441.683837890625	-112.3307647705075	139.1882629394531	1282.328491210938	-32.19540023803683	192.4341125488281	1191.878662109375	-22.65941429138157	71.63959503173828	1204.161010742188	-30.85163688659641	109.3769073486328	1093.421997070312	-19.92779541015601	98.23452758789062	1092.182739257812	-102.4486999511716	197.6558532714844	904.9287109375	-10.23376560211162	238.9306335449219	838.0724487304688	-44.0956382751463	164.3513488769531	817.200927734375	-25.15609741210919	225.1024932861328	749.24365234375	5.913109302520918	220.6414642333984	1453.339233398438	-452.5858154296872	203.1958923339844	1289.969360351563	-552.8703002929684	268.1285400390625	1212.115356445313	-554.6923217773435	147.0917663574219	1210.963989257813	-580.024963378906	211.9593200683594	1108.718017578125	-591.7225341796873	159.2896881103516	1097.386474609375	-534.216857910156	344.1657409667969	952.5862426757814	-562.9222412109373	384.4712219238281	902.6388549804689	-509.783752441406	345.6111145019531	867.4901733398439	-570.0218505859373	432.2623901367188	830.3004760742189	-550.855285644531	199.9808654785156	1048.81201171875	-126.4153137207029	77.69938659667969	1022.543518066406	-298.6508483886716	209.0036773681641	1041.94970703125	-470.9099426269529	175.6908721923828	903.09228515625	-113.1923904418943	300.6522521972656	640.1102294921875	-145.672897338867	348.6429138183594	674.0324096679688	-149.6845397949217	380.9368286132812	578.952880859375	-187.5107269287108	321.4049987792969	562.8241577148438	-167.7836456298827	357.2036437988281	340.8837280273438	-167.6589202880859	411.6761779785156	329.4879150390626	-191.2053985595702	418.0260314941406	245.3634185791016	-211.1419525146484	357.0997619628906	240.9129943847657	-190.651382446289	334.2440795898438	38.889877319336	-281.6873168945312	496.9533996582031	21.50655174255375	-196.6553955078125	549.0643920898438	36.77119445800788	-292.4180908203125	154.8504791259766	932.1690673828126	-477.4568786621091	178.4727935791016	638.0598754882814	-471.515655517578	130.6699829101562	671.3016967773439	-484.0588073730467	94.61063385009766	573.0437622070314	-462.845733642578	156.6945343017578	560.2603149414064	-456.3302307128905	-35.21883773803711	342.9833984375001	-454.4008178710937	-91.62850189208984	365.5223388671876	-454.5846862792968	-149.2773284912109	303.0872497558595	-436.5994873046874	-98.72972869873047	264.8424682617189	-432.0061340332031	-292.2413940429688	204.4883880615235	-367.1451721191406	-230.523681640625	31.68789672851571	-400.6644897460938	-200.4800415039062	40.8364219665528	-299.6532592773438	
46	0.18	335.5502014160156	1714.667846679688	-267.5290832519527	277.9340515136719	1657.849731445312	-193.8737030029293	276.6319885253906	1672.052368164062	-341.3977661132809	139.1473846435547	1497.614868164062	-288.4358520507809	59.78863906860352	1299.804809570312	-232.6710662841794	66.330322265625	1307.08349609375	-370.2863769531247	313.0036010742188	1331.6748046875	-279.2704162597653	205.0874176025391	1442.18505859375	-111.7721939086911	145.7404479980469	1282.7744140625	-31.73005867004366	199.0738677978516	1192.41259765625	-22.52811431884739	78.24861907958984	1204.552490234375	-30.42228126525852	115.786262512207	1094.639404296875	-19.88465118408179	104.7505111694336	1092.9833984375	-102.3972549438474	204.4679260253906	905.4981079101562	-10.49451541900615	245.9121856689453	838.5629272460938	-44.65242004394513	171.38671875	817.813232421875	-25.49858856201154	232.0171356201172	749.6829223632812	5.328472614288496	227.0726165771484	1454.287841796875	-451.7934875488278	209.2046508789062	1290.916748046875	-552.3646240234372	273.7465209960938	1212.814208984375	-555.504943847656	152.9811248779297	1211.861328125	-578.8995971679685	217.4267730712891	1109.67578125	-591.210266113281	164.7440643310547	1098.44970703125	-533.5685424804685	348.5391235351562	952.5075073242189	-563.3656005859373	388.7137756347656	902.0530395507814	-510.2805175781248	349.2920837402344	867.4074096679689	-570.5524902343748	435.6144409179688	829.4725952148439	-552.1605834960935	206.2783203125	1050.103393554688	-126.238082885742	84.1396484375	1022.829162597656	-298.5437011718748	216.4498291015625	1042.379760742188	-470.1885070800779	181.9783020019531	903.8995361328125	-112.8336334228514	306.2774658203125	640.1159057617188	-145.2327880859374	354.2029724121094	673.9071655273438	-149.3203124999999	386.0883178710938	579.0731811523438	-187.6188964843749	326.5668334960938	562.8340454101562	-167.550811767578	360.73486328125	340.8414611816407	-167.6176300048827	415.0740051269531	328.9300231933594	-191.446075439453	420.5900268554688	244.8924713134766	-211.5297698974609	359.6254577636719	240.621078491211	-191.2268676757812	334.8087158203125	38.71930694580085	-281.2195434570312	497.2264404296875	21.58016777038578	-196.9544677734375	549.52001953125	35.87631225585944	-293.4092102050781	161.7502593994141	931.9015502929689	-477.2063903808591	187.9041137695312	637.6917114257814	-471.8580017089843	139.79248046875	670.9273681640626	-484.7086791992186	104.6034088134766	571.9994506835939	-463.6036376953124	166.8084259033203	559.4569702148439	-457.0034179687499	-25.8072566986084	343.149627685547	-455.4586791992187	-82.18406677246094	366.1011352539064	-455.2833557128906	-141.3057098388672	304.2294311523439	-437.6546936035156	-90.57972717285156	265.7161865234376	-433.1384277343749	-284.1773986816406	208.817596435547	-368.9819641113281	-227.6045379638672	33.90074157714853	-400.4141540527344	-197.8694763183594	42.98969268798835	-299.7243347167969	
47	0.184	341.4935913085938	1715.058471679688	-266.8827514648434	283.9105224609375	1658.2744140625	-193.0823211669918	282.5931396484375	1672.448120117188	-340.7296752929684	145.1487121582031	1497.853271484375	-287.9304809570309	66.16721343994141	1300.123779296875	-232.1891174316403	72.73495483398438	1307.708129882812	-370.1371765136716	319.34033203125	1332.378540039062	-278.735900878906	211.2904205322266	1442.66357421875	-111.2691040039059	152.3139190673828	1283.212890625	-31.20738029479952	205.6460571289062	1192.897827148438	-22.33894538879368	84.72576141357422	1204.966186523438	-29.99717140197727	122.5150375366211	1094.682495117188	-19.54400253295874	111.2054595947266	1093.724487304688	-102.2312240600584	211.5677337646484	905.934326171875	-10.55610275268535	253.1517181396484	839.761962890625	-43.54745101928692	178.4501647949219	818.4483642578125	-25.97644615173322	238.9600219726562	750.1447143554688	4.97215127944963	233.3951721191406	1454.811279296875	-451.1168823242184	215.2192535400391	1291.7470703125	-552.0214233398434	279.6549377441406	1213.616088867188	-555.1107788085935	158.4735565185547	1212.788818359375	-578.2589111328123	222.8105010986328	1110.592895507813	-590.8778076171873	170.1521148681641	1099.70263671875	-533.0968627929685	352.8238220214844	952.3693237304689	-563.7221069335935	393.0405883789062	901.4168701171876	-510.9174804687498	352.895263671875	867.2553710937501	-571.2316894531248	438.9592590332031	828.5751953125001	-553.361389160156	213.1793060302734	1051.581298828125	-126.0790100097654	90.343505859375	1023.458129882813	-298.3757324218748	223.7828979492188	1042.9208984375	-469.5520324707029	188.2269744873047	904.51953125	-112.5740509033201	311.6205749511719	640.2453002929688	-144.8502655029295	359.74169921875	673.5367431640625	-148.9727783203124	391.0895385742188	578.5843505859375	-187.5876312255858	331.5759887695312	562.8215942382812	-167.4729003906249	364.0222473144531	340.8130798339844	-167.6910095214843	418.184814453125	328.5802307128907	-191.774429321289	422.924072265625	244.398178100586	-212.0045776367187	362.0497436523438	240.7698669433594	-191.3779602050781	334.9845581054688	38.85049819946295	-281.2980651855469	497.47314453125	21.53735733032231	-197.0702056884766	550.0054321289062	35.10281372070319	-294.0129699707031	168.7105255126953	931.7995605468751	-476.9395446777341	197.4798126220703	637.3132934570314	-472.4306030273436	148.953369140625	669.9818725585939	-484.5372314453123	114.6249771118164	570.8637695312501	-464.2037658691405	176.8908843994141	558.8435058593751	-457.7259521484374	-16.50018692016602	343.3019409179689	-456.2400207519531	-72.48268127441406	367.179412841797	-456.2436828613281	-132.5547790527344	305.718475341797	-438.6858215332031	-82.11904907226562	266.3584899902345	-434.1813049316406	-276.2309265136719	213.1258697509766	-370.7942810058593	-224.1386260986328	36.31510543823251	-400.488525390625	-194.9324798583984	45.15758132934577	-299.98779296875	
48	0.188	347.5429992675781	1715.439453125	-266.3181152343746	289.9703369140625	1658.705688476562	-192.5368347167965	288.396728515625	1672.906982421875	-340.0171508789059	151.1907653808594	1498.249389648438	-287.2809143066403	72.46659088134766	1300.505981445312	-231.5964202880857	79.14225006103516	1308.512451171875	-369.9913635253903	325.6181945800781	1333.049072265625	-278.2943115234372	217.5344696044922	1443.175170898438	-110.7528686523434	158.8620452880859	1283.635131835938	-30.65301895141573	212.1918487548828	1193.224243164062	-22.07767868041966	91.30602264404297	1205.437866210938	-29.76358985900852	128.9953460693359	1095.155029296875	-19.44526481628394	117.6800003051758	1093.986328125	-101.9756088256834	218.400390625	906.5556030273438	-10.73485279083232	260.2239685058594	840.4002685546875	-43.49547576904278	185.5348968505859	818.9305419921875	-26.35036087036115	246.1293640136719	750.7613525390625	4.573813915252853	239.612548828125	1455.538330078125	-450.3048095703122	221.2330627441406	1292.447021484375	-551.7733764648434	285.5151062011719	1214.2177734375	-554.9674072265623	164.0994567871094	1213.808837890625	-577.5751342773435	227.9906921386719	1111.419555664063	-590.6585693359373	175.5739135742188	1100.872924804688	-532.5685424804685	357.1881408691406	952.3306884765626	-564.2169799804685	397.2408752441406	900.8723754882814	-511.6410217285154	356.5491943359375	867.1924438476564	-571.8917846679685	442.4440002441406	827.8551025390626	-554.6896972656248	220.1370544433594	1052.920776367188	-126.1057205200193	96.52150726318359	1023.708923339844	-298.2868347167966	230.877685546875	1043.658447265625	-468.8030090332029	194.5284118652344	905.1732177734375	-112.0354537963865	316.6146545410156	640.2408447265625	-144.6129608154295	364.9051818847656	673.448974609375	-148.6961822509764	395.4913635253906	578.490966796875	-187.4792480468749	336.1947326660156	562.935546875	-167.3501434326171	367.0816955566406	340.8028564453126	-167.9051055908202	421.1591796875	328.1619873046876	-192.159683227539	425.0692443847656	244.0372924804688	-212.4814758300781	364.3251647949219	241.0377655029297	-191.5243072509765	335.1522521972656	38.97322463989264	-281.4214477539062	497.6355285644531	21.41678810119633	-197.0237884521484	550.5348510742188	34.61352539062506	-294.340087890625	175.6727294921875	931.6296997070314	-476.4159545898435	206.8451385498047	636.8362426757814	-473.0671997070311	157.9132080078125	668.6611938476564	-484.2068786621092	124.5962142944336	569.7112426757814	-464.8326110839843	187.0547637939453	558.2530517578126	-458.5684204101561	-6.974866390228271	343.5585937500001	-457.0564575195312	-62.54673385620117	368.0348205566407	-456.9653015136718	-123.3591232299805	307.4284667968751	-439.7429809570312	-73.42257690429688	267.5066833496095	-434.9300537109374	-268.9857482910156	217.8589324951173	-372.3309326171874	-220.2768249511719	39.4275665283204	-400.7966918945312	-191.5519714355469	47.47440719604499	-300.521484375	
